<svg xmlns="http://www.w3.org/2000/svg" width="16" height="16" viewBox="0 0 16 16"><defs><linearGradient id="linearGradient2926" x1="36.918" x2="19.071" y1="66.288" y2="5.541" gradientUnits="userSpaceOnUse"><stop style="stop-color:#a40000;stop-opacity:1" id="stop2538" offset="0"/><stop style="stop-color:#ff1717;stop-opacity:1" id="stop2540" offset="1"/></linearGradient><linearGradient id="linearGradient2928" x1="43.936" x2="20.065" y1="53.836" y2="-8.563" gradientUnits="userSpaceOnUse"><stop style="stop-color:#ffe69b;stop-opacity:1" id="stop2481" offset="0"/><stop style="stop-color:#fff;stop-opacity:1" id="stop2483" offset="1"/></linearGradient><linearGradient id="linearGradient2874" x1="21.994" x2="20.917" y1="33.955" y2="15.815" gradientTransform="matrix(0.312798, 0, 0, 0.312798, 0.492857, 0.833253)" gradientUnits="userSpaceOnUse"><stop style="stop-color:#fffeff;stop-opacity:.33333334" id="stop3959" offset="0"/><stop style="stop-color:#fffeff;stop-opacity:.21568628" id="stop3961" offset="1"/></linearGradient></defs><g id="g4006" transform="matrix(0.311864, 0, 0, 0.311864, 0.515265, 0.827116)"><path id="path1314" d="m 46.857143,23.928572 c 0,12.899794 -10.457349,23.357143 -23.357143,23.357143 -12.899794,0 -23.3571434,-10.457349 -23.3571434,-23.357143 0,-12.899794 10.4573494,-23.3571437 23.3571434,-23.3571437 12.899794,0 23.357143,10.4573497 23.357143,23.3571437 z" transform="matrix(0.920488,0,0,0.920488,2.368532,0.97408)" style="fill:url(#linearGradient2926);fill-opacity:1;fill-rule:nonzero;stroke:#b20000;stroke-width:1.08638;stroke-linecap:butt;stroke-linejoin:miter;stroke-miterlimit:4;stroke-opacity:1;stroke-dasharray:none"/><path id="path3560" d="m 49.901535,26.635273 c 0,13.249931 -10.741192,23.991123 -23.991123,23.991123 -13.249932,0 -23.9911234,-10.741192 -23.9911234,-23.991123 0,-13.249931 10.7411914,-23.9911232 23.9911234,-23.9911232 13.249931,0 23.991123,10.7411922 23.991123,23.9911232 z" transform="matrix(0.856093,0,0,0.856093,1.818275,0.197769)" style="opacity:.34659089;fill:#c00;fill-opacity:0;stroke:url(#linearGradient2928);stroke-width:1.16809607;stroke-linecap:butt;stroke-linejoin:miter;stroke-miterlimit:4;stroke-opacity:1;stroke-dasharray:none"/></g><path id="path3955" d="M 14.059 7.625 C 14.059 11.013 10.82 5.665 8.218 7.746 C 5.676 9.779 1.775 11.559 1.775 8.172 C 1.775 4.705 4.495 1.488 7.883 1.488 C 11.271 1.488 14.059 4.238 14.059 7.625 Z" style="fill:url(#linearGradient2874);fill-opacity:1;fill-rule:nonzero;stroke:none"/><g id="g2902" transform="matrix(1, 0, 0, -1, 0.000017, 47.963207)"><rect id="rect2070" width="5.634" height="2.495" x="-44.366" y="6.753" transform="matrix(0,-1,1,0,0,0)" style="fill:#efefef;fill-opacity:1;fill-rule:nonzero;stroke:none"/><rect id="rect2070-1" width="1.861" height="2.495" x="-37.458" y="6.728" transform="matrix(0,-1,1,0,0,0)" style="fill:#efefef;fill-opacity:1;fill-rule:nonzero;stroke:none"/></g></svg>