<svg xmlns="http://www.w3.org/2000/svg" width="16" height="16" viewBox="0 0 16 16"><defs><linearGradient id="linearGradient3966" x1="36.918" x2="19.071" y1="66.288" y2="5.541" gradientTransform="matrix(0.287068, 0, 0, 0.287068, 1.2538, 1.130889)" gradientUnits="userSpaceOnUse"><stop style="stop-color:#4293c1;stop-opacity:1" id="stop2481-5-7" offset="0"/><stop style="stop-color:#fff;stop-opacity:1" id="stop2483-1-6" offset="1"/></linearGradient><linearGradient id="linearGradient3829" x1="43.936" x2="20.065" y1="53.836" y2="-8.563" gradientTransform="matrix(0.266985, 0, 0, 0.266985, 1.082194, 0.888786)" gradientUnits="userSpaceOnUse"><stop style="stop-color:#4293c1;stop-opacity:1" id="stop2481-5-7" offset="0"/><stop style="stop-color:#fff;stop-opacity:1" id="stop2483-1-6" offset="1"/></linearGradient><linearGradient id="linearGradient2874-7-1" x1="21.994" x2="20.917" y1="33.955" y2="15.815" gradientTransform="matrix(0.312798, 0, 0, 0.312798, 0.522523, 0.894599)" gradientUnits="userSpaceOnUse"><stop style="stop-color:#fffeff;stop-opacity:.33333334" id="stop3959-0-2" offset="0"/><stop style="stop-color:#fffeff;stop-opacity:.21568628" id="stop3961-9-3" offset="1"/></linearGradient></defs><path style="fill:url(#linearGradient3966);fill-opacity:1;fill-rule:nonzero;stroke:#0095b2;stroke-width:1.08638;stroke-linecap:butt;stroke-linejoin:miter;stroke-miterlimit:4;stroke-opacity:1;stroke-dasharray:none" id="path1314-1-8" d="M 14.705 8 C 14.705 11.703 11.703 14.705 7.999 14.705 C 4.296 14.705 1.294 11.703 1.294 8 C 1.294 4.297 4.296 1.295 7.999 1.295 C 11.703 1.295 14.705 4.297 14.705 8 Z"/><path style="opacity:.34659089;fill:#c90;fill-opacity:0;stroke:url(#linearGradient3829);stroke-width:1.16860485;stroke-linecap:butt;stroke-linejoin:miter;stroke-miterlimit:4;stroke-opacity:1;stroke-dasharray:none" id="path3560-1-9" d="M 14.405 8 C 14.405 11.538 11.537 14.405 7.999 14.405 C 4.462 14.405 1.594 11.538 1.594 8 C 1.594 4.463 4.462 1.595 7.999 1.595 C 11.537 1.595 14.405 4.463 14.405 8 Z"/><path id="path3955-5-2" d="M 14.088 7.687 C 14.088 11.075 10.85 5.727 8.247 7.808 C 5.705 9.841 1.804 11.621 1.804 8.234 C 1.804 4.766 4.524 1.55 7.912 1.55 C 11.3 1.55 14.088 4.3 14.088 7.687 Z" style="fill:url(#linearGradient2874-7-1);fill-opacity:1;fill-rule:nonzero;stroke:none"/><g id="g2902-2-7" transform="matrix(1, 0, 0, 1, 0.029675, -31.938656)" style="fill:#2c3ab4;fill-opacity:1"><rect id="rect2070-7-9" width="5.634" height="2.495" x="-44.366" y="6.753" transform="matrix(0,-1,1,0,0,0)" style="fill:#2c3ab4;fill-opacity:1;fill-rule:nonzero;stroke:none"/><rect id="rect2070-1-6-5" width="1.861" height="2.495" x="-37.458" y="6.728" transform="matrix(0,-1,1,0,0,0)" style="fill:#2c3ab4;fill-opacity:1;fill-rule:nonzero;stroke:none"/></g></svg>