<svg xmlns="http://www.w3.org/2000/svg" xmlns:svg="http://www.w3.org/2000/svg" xmlns:xlink="http://www.w3.org/1999/xlink" id="svg1256" width="48" height="48" version="1.1"><defs id="defs3"><linearGradient id="linearGradient12512"><stop style="stop-color:#fff;stop-opacity:1" id="stop12513" offset="0"/><stop style="stop-color:#fff520;stop-opacity:.89108908" id="stop12517" offset=".5"/><stop style="stop-color:#fff300;stop-opacity:0" id="stop12514" offset="1"/></linearGradient><radialGradient id="radialGradient278" cx="55" cy="125" r="14.375" fx="55" fy="125" gradientUnits="userSpaceOnUse" xlink:href="#linearGradient12512"/><linearGradient id="linearGradient21644"><stop style="stop-color:#000;stop-opacity:1" id="stop21646" offset="0"/><stop style="stop-color:#000;stop-opacity:0" id="stop21648" offset="1"/></linearGradient><linearGradient id="linearGradient2116"><stop style="stop-color:#fff;stop-opacity:1" id="stop2118" offset="0"/><stop style="stop-color:#fff;stop-opacity:0" id="stop2120" offset="1"/></linearGradient><linearGradient id="linearGradient2094"><stop style="stop-color:#d6e3f0;stop-opacity:1" id="stop2096" offset="0"/><stop style="stop-color:#95b1cf;stop-opacity:1" id="stop2098" offset="1"/></linearGradient><linearGradient id="linearGradient2803"><stop id="stop2805" offset="0" style="stop-color:#fff;stop-opacity:1"/><stop id="stop2807" offset="1" style="stop-color:#cbcbcb;stop-opacity:1"/></linearGradient><linearGradient id="linearGradient2795"><stop id="stop2797" offset="0" style="stop-color:#000;stop-opacity:.068627454"/><stop id="stop2799" offset="1" style="stop-color:#fff;stop-opacity:1"/></linearGradient><linearGradient id="linearGradient2801" x1="35.433" x2="41.219" y1="4.953" y2="4.953" gradientTransform="matrix(0.254000,0.000000,1.822151e-16,3.759813,0.788629,0.148567)" gradientUnits="userSpaceOnUse" xlink:href="#linearGradient2795"/><linearGradient id="linearGradient2813" x1="10.496" x2="10.22" y1="93.338" y2="84.287" gradientTransform="matrix(2.262742,0.000000,0.000000,0.441942,1.000000,-0.875000)" gradientUnits="userSpaceOnUse" xlink:href="#linearGradient2803"/><linearGradient id="linearGradient2100" x1="6.587" x2="14.511" y1="22.133" y2="22.133" gradientTransform="matrix(0.957750,0.000000,0.000000,1.027989,1.000000,-0.571911)" gradientUnits="userSpaceOnUse" xlink:href="#linearGradient2094"/><linearGradient id="linearGradient2112" x1="73.362" x2="-2.758" y1="26.652" y2="21.27" gradientTransform="matrix(1.025428,0.000000,0.000000,0.957303,0.000000,-0.806758)" gradientUnits="userSpaceOnUse" xlink:href="#linearGradient2116"/><radialGradient id="radialGradient21650" cx="25.125" cy="36.75" r="15.75" fx="25.125" fy="36.75" gradientTransform="matrix(1.000000,0.000000,0.000000,0.595238,-6.245005e-16,14.87500)" gradientUnits="userSpaceOnUse" xlink:href="#linearGradient21644"/></defs><metadata id="metadata4"/><g id="layer1"><path style="opacity:1;color:#000;fill:url(#radialGradient21650);fill-opacity:1;fill-rule:evenodd;stroke:none;stroke-width:1;stroke-linecap:round;stroke-linejoin:round;marker:none;marker-start:none;marker-mid:none;marker-end:none;stroke-miterlimit:4;stroke-dasharray:none;stroke-dashoffset:0;stroke-opacity:1;visibility:visible;display:inline;overflow:visible" id="path21642" d="M 40.875 36.75 A 15.75 9.375 0 1 1 9.375,36.75 A 15.75 9.375 0 1 1 40.875 36.75 z" transform="matrix(1.150794,0.000000,0.000000,1.000000,-4.913690,0.625000)"/><path style="color:#000;fill:#5b6b94;fill-opacity:1;fill-rule:nonzero;stroke:#364878;stroke-width:1.00000012;stroke-linecap:round;stroke-linejoin:round;marker:none;marker-start:none;marker-mid:none;marker-end:none;stroke-miterlimit:4;stroke-dashoffset:0;stroke-opacity:1;visibility:visible;display:inline;overflow:visible" id="rect1408" d="M 6.3643222,5.5185897 C 6.4551049,3.6036003 7.3719758,2.5542814 9.0788784,2.549044 L 38.405776,2.4590577 C 38.652361,2.4583011 38.974317,2.6592071 38.999012,2.9089888 L 42.257491,35.867228 L 40.942189,35.923862 L 41.571429,42.369516 C 41.632441,42.994499 41.390059,43.52882 40.5,43.533035 L 9.7893046,43.678474 C 7.25676,43.690468 4.6538454,41.59976 4.7759337,39.024403 L 6.3643222,5.5185897 z"/><path id="path2489" d="M 40.125,34.875 L 10.9375,35 C 9.3809819,35.177868 8.125,36.39612 8.125,38 C 8.125,39.60388 9.3809819,40.822132 10.9375,41 L 40.125,41.125 L 40.125,41.0625 C 38.469378,40.984348 37.125,39.674851 37.125,38 C 37.125,36.325149 38.469378,35.015652 40.125,34.9375 L 40.125,34.875 z" style="color:#000;fill:url(#linearGradient2813);fill-opacity:1;fill-rule:nonzero;stroke:none;stroke-width:1;stroke-linecap:round;stroke-linejoin:round;marker:none;marker-start:none;marker-mid:none;marker-end:none;stroke-miterlimit:4;stroke-dashoffset:0;stroke-opacity:1;visibility:visible;display:inline;overflow:visible"/><path id="path2784" d="M 9.6875,2.8125 C 7.9805897,2.8125 7.050103,3.8215062 6.96875,5.6738658 L 5.3125,37.825772 C 5.22054,40.904199 7.1393732,42.654485 9.125,43.15625 C 4.875,41.525579 5.4375,34.164455 10.75,34.195222 L 41.648286,34.195222 L 38.335786,3.2432432 C 38.310025,3.0025304 37.987878,2.8125 37.742036,2.8125 L 9.6875,2.8125 z" style="color:#000;fill:url(#linearGradient2100);fill-opacity:1;fill-rule:nonzero;stroke:none;stroke-width:1;stroke-linecap:round;stroke-linejoin:round;marker:none;marker-start:none;marker-mid:none;marker-end:none;stroke-miterlimit:4;stroke-dashoffset:0;stroke-opacity:1;visibility:visible;display:inline;overflow:visible"/><rect id="rect2793" width="2" height="29.605" x="9.789" y="3.969" transform="matrix(1.000000,0.000000,-3.582731e-2,0.999358,0.000000,0.000000)" style="opacity:.48044691;color:#000;fill:url(#linearGradient2801);fill-opacity:1;fill-rule:nonzero;stroke:none;stroke-width:1;stroke-linecap:round;stroke-linejoin:round;marker:none;marker-start:none;marker-mid:none;marker-end:none;stroke-miterlimit:4;stroke-dashoffset:0;stroke-opacity:.60818715;visibility:visible;display:inline;overflow:visible"/><path style="color:#000;fill:none;fill-opacity:1;fill-rule:nonzero;stroke:url(#linearGradient2112);stroke-width:1.00000012;stroke-linecap:round;stroke-linejoin:miter;marker:none;marker-start:none;marker-mid:none;marker-end:none;stroke-miterlimit:20;stroke-dasharray:none;stroke-dashoffset:0;stroke-opacity:1;visibility:visible;display:inline;overflow:visible" id="path2104" d="M 9.8751008,3.3336831 C 8.1912014,3.3336831 7.5384236,4.0658459 7.4581673,5.887831 L 6.1592633,35.777198 C 7.0925916,34.170451 8.5988591,33.594437 11.011665,33.594437 L 40.963081,33.594437 L 38.137179,3.7573631 C 38.114727,3.5203092 37.793961,3.3336831 37.551434,3.3336831 L 9.8751008,3.3336831 z"/></g></svg>