<svg xmlns="http://www.w3.org/2000/svg" xmlns:svg="http://www.w3.org/2000/svg" xmlns:xlink="http://www.w3.org/1999/xlink" id="svg249" width="48" height="48" version="1.1"><defs id="defs3"><linearGradient id="linearGradient4542"><stop style="stop-color:#8e8e8e;stop-opacity:1" id="stop4544" offset="0"/><stop style="stop-color:#000;stop-opacity:0" id="stop4546" offset="1"/></linearGradient><linearGradient id="linearGradient15662"><stop id="stop15664" offset="0" style="stop-color:#fff;stop-opacity:1"/><stop id="stop15666" offset="1" style="stop-color:#f8f8f8;stop-opacity:1"/></linearGradient><radialGradient id="aigrd3" cx="20.892" cy="64.568" r="5.257" fx="20.892" fy="64.568" gradientUnits="userSpaceOnUse"><stop style="stop-color:#f0f0f0" id="stop15573" offset="0"/><stop style="stop-color:#9a9a9a;stop-opacity:1" id="stop15575" offset="1"/></radialGradient><radialGradient id="aigrd2" cx="20.892" cy="114.568" r="5.256" fx="20.892" fy="114.568" gradientUnits="userSpaceOnUse"><stop style="stop-color:#f0f0f0" id="stop15566" offset="0"/><stop style="stop-color:#9a9a9a;stop-opacity:1" id="stop15568" offset="1"/></radialGradient><linearGradient id="linearGradient269"><stop id="stop270" offset="0" style="stop-color:#a3a3a3;stop-opacity:1"/><stop id="stop271" offset="1" style="stop-color:#4c4c4c;stop-opacity:1"/></linearGradient><linearGradient id="linearGradient259"><stop id="stop260" offset="0" style="stop-color:#fafafa;stop-opacity:1"/><stop id="stop261" offset="1" style="stop-color:#bbb;stop-opacity:1"/></linearGradient><radialGradient id="radialGradient5395" cx="24.307" cy="42.078" r="15.822" fx="24.307" fy="42.078" gradientTransform="matrix(1,0,0,0.284916,0,30.08928)" gradientUnits="userSpaceOnUse" xlink:href="#linearGradient4542"/><radialGradient id="aigrd2-6" cx="20.892" cy="114.568" r="5.256" fx="20.892" fy="114.568" gradientUnits="userSpaceOnUse"><stop style="stop-color:#f0f0f0" id="stop15566-8" offset="0"/><stop style="stop-color:#9a9a9a;stop-opacity:1" id="stop15568-6" offset="1"/></radialGradient><radialGradient id="aigrd3-3" cx="20.892" cy="64.568" r="5.257" fx="20.892" fy="64.568" gradientUnits="userSpaceOnUse"><stop style="stop-color:#f0f0f0" id="stop15573-3" offset="0"/><stop style="stop-color:#9a9a9a;stop-opacity:1" id="stop15575-4" offset="1"/></radialGradient><linearGradient id="linearGradient15662-5"><stop id="stop15664-6" offset="0" style="stop-color:#fff;stop-opacity:1"/><stop id="stop15666-1" offset="1" style="stop-color:#f8f8f8;stop-opacity:1"/></linearGradient><radialGradient id="radialGradient5448-5" cx="33.967" cy="35.737" r="86.708" fx="33.967" fy="35.737" gradientTransform="scale(0.960493,1.041132)" gradientUnits="userSpaceOnUse" xlink:href="#linearGradient259-5"/><linearGradient id="linearGradient259-5"><stop id="stop260-0" offset="0" style="stop-color:#fafafa;stop-opacity:1"/><stop id="stop261-1" offset="1" style="stop-color:#bbb;stop-opacity:1"/></linearGradient><radialGradient id="radialGradient5450-5" cx="8.824" cy="3.756" r="37.752" fx="8.824" fy="3.756" gradientTransform="matrix(0.968273,0,0,1.032767,3.353553,0.646447)" gradientUnits="userSpaceOnUse" xlink:href="#linearGradient269-7"/><linearGradient id="linearGradient269-7"><stop id="stop270-1" offset="0" style="stop-color:#a3a3a3;stop-opacity:1"/><stop id="stop271-3" offset="1" style="stop-color:#4c4c4c;stop-opacity:1"/></linearGradient><radialGradient id="radialGradient5991" cx="33.967" cy="35.737" r="86.708" fx="33.967" fy="35.737" gradientTransform="matrix(0.960493,0,0,1.041132,-0.10355282,22.853554)" gradientUnits="userSpaceOnUse" xlink:href="#linearGradient259"/><radialGradient id="radialGradient5993" cx="8.824" cy="3.756" r="37.752" fx="8.824" fy="3.756" gradientTransform="matrix(0.968273,0,0,1.032767,3.2500002,23.500001)" gradientUnits="userSpaceOnUse" xlink:href="#linearGradient269"/><radialGradient id="radialGradient5995" cx="8.144" cy="7.268" r="38.159" fx="8.144" fy="7.268" gradientTransform="matrix(0.968273,0,0,1.032767,3.3124992,-23.343749)" gradientUnits="userSpaceOnUse" xlink:href="#linearGradient15662"/><radialGradient id="radialGradient5997" cx="33.967" cy="35.737" r="86.708" fx="33.967" fy="35.737" gradientTransform="matrix(0.960493,0,0,1.041132,0.02144718,-24.052696)" gradientUnits="userSpaceOnUse" xlink:href="#linearGradient259"/><radialGradient id="radialGradient5999" cx="8.824" cy="3.756" r="37.752" fx="8.824" fy="3.756" gradientTransform="matrix(0.968273,0,0,1.032767,3.3750002,-23.406249)" gradientUnits="userSpaceOnUse" xlink:href="#linearGradient269"/><radialGradient id="radialGradient6001" cx="8.144" cy="7.268" r="38.159" fx="8.144" fy="7.268" gradientTransform="matrix(0.968273,0,0,1.032767,3.1874992,23.562501)" gradientUnits="userSpaceOnUse" xlink:href="#linearGradient15662"/><radialGradient id="radialGradient6005" cx="24.307" cy="42.078" r="15.822" fx="24.307" fy="42.078" gradientTransform="matrix(1,0,0,0.284916,0,30.08928)" gradientUnits="userSpaceOnUse" xlink:href="#linearGradient4542"/></defs><metadata id="metadata4"/><g id="layer6"><path style="opacity:.7836257;color:#000;fill:url(#radialGradient5395);fill-opacity:1;fill-rule:evenodd;stroke:none;stroke-width:2;marker:none;visibility:visible;display:inline;overflow:visible" id="path3667" d="m 40.128309,42.07798 a 15.821514,4.5078058 0 1 1 -31.643028,0 15.821514,4.5078058 0 1 1 31.643028,0 z" transform="translate(0.514719,-22.570174)"/><path id="path6003" d="m 40.128309,42.07798 a 15.821514,4.5078058 0 1 1 -31.643028,0 15.821514,4.5078058 0 1 1 31.643028,0 z" transform="translate(0.514719,-0.0701739)" style="opacity:.7836257;color:#000;fill:url(#radialGradient6005);fill-opacity:1;fill-rule:evenodd;stroke:none;stroke-width:2;marker:none;visibility:visible;display:inline;overflow:visible"/><path style="fill:#ce5c00;stroke:#ce5c00;stroke-width:1px;stroke-linecap:butt;stroke-linejoin:miter;stroke-opacity:1" id="path6007" d="m 2,23.5 44,0"/><path id="path6009" d="m 2,24.5 44,0" style="fill:#ce5c00;stroke:#f57900;stroke-width:1px;stroke-linecap:butt;stroke-linejoin:miter;stroke-opacity:1"/><path style="fill:#ce5c00;stroke:#ce5c00;stroke-width:1px;stroke-linecap:butt;stroke-linejoin:miter;stroke-opacity:1" id="path6011" d="m 2,25.5 44,0"/></g><g id="layer5" style="display:inline"><g id="g5708" transform="translate(0,2)"><path style="color:#000;fill:url(#radialGradient5991);fill-opacity:1;fill-rule:nonzero;stroke:url(#radialGradient5993);stroke-width:1;stroke-linecap:round;stroke-linejoin:round;stroke-miterlimit:4;stroke-opacity:1;stroke-dashoffset:0;marker:none;visibility:visible;display:block;overflow:visible" id="rect15391" d="M 7.65625,26.5 C 7.0196771,26.5 6.5,27.019677 6.5,27.65625 L 6.5,39.5 10,43 l 5,-5 5,5 5,-5 5,5 5,-5 5,5 1.375,-1.375 0,-13.96875 C 41.375,27.019677 40.855323,26.5 40.21875,26.5 l -32.5625,0 z"/><path id="path15672" d="m 11.40217,28.009739 0,11.977885" style="fill:none;stroke:#000;stroke-width:.98855311;stroke-linecap:butt;stroke-linejoin:miter;stroke-miterlimit:4;stroke-opacity:.01754384;display:inline"/><path id="path15674" d="m 12.396447,27.522941 0,11.31958" style="fill:none;stroke:#fff;stroke-width:1;stroke-linecap:butt;stroke-linejoin:miter;stroke-miterlimit:4;stroke-opacity:.20467828;display:inline"/><rect style="color:#000;fill:#9b9b9b;fill-opacity:.54970757;fill-rule:nonzero;stroke:none;stroke-width:1;marker:none;visibility:visible;display:block;overflow:visible" id="rect15686" width="20" height="1" x="15.896" y="31.854" rx=".138" ry=".065"/><rect style="color:#000;fill:#9b9b9b;fill-opacity:.54970757;fill-rule:nonzero;stroke:none;stroke-width:1;marker:none;visibility:visible;display:block;overflow:visible" id="rect15688" width="20" height="1" x="15.896" y="33.854" rx=".138" ry=".065"/><rect style="color:#000;fill:#9b9b9b;fill-opacity:.54970757;fill-rule:nonzero;stroke:none;stroke-width:1;marker:none;visibility:visible;display:block;overflow:visible" id="rect15690" width="20" height="1" x="15.896" y="35.854" rx=".138" ry=".065"/><path id="rect15694" d="m 16.957031,37.84375 1,1 4.082032,0 1,-1 z m 9.992188,0 1,1 4.089844,0 1,-1 z m -7.992188,2 1,1 0.08203,0 1,-1 z m 9.992188,0 1,1 0.08984,0 1,-1 z" style="color:#000;fill:#9b9b9b;fill-opacity:.54970757;fill-rule:nonzero;stroke:none;stroke-width:1;marker:none;visibility:visible;display:block;overflow:visible"/><path style="color:#000;fill:none;stroke:url(#radialGradient6001);stroke-width:1;stroke-linecap:round;stroke-linejoin:round;stroke-miterlimit:4;stroke-opacity:1;stroke-dashoffset:0;marker:none;visibility:visible;display:block;overflow:visible" id="rect15660" d="M 7.65625,27.5 C 7.5736771,27.5 7.5,27.573677 7.5,27.65625 l 0,11.4375 2.5,2.5 5,-5 5,5 5,-5 5,5 5,-5 5,5 0.28125,-0.28125 0,-13.65625 C 40.28125,27.573677 40.207573,27.5 40.125,27.5 l -32.46875,0 z"/></g><path style="color:#000;fill:url(#radialGradient5997);fill-opacity:1;fill-rule:nonzero;stroke:url(#radialGradient5999);stroke-width:1;stroke-linecap:round;stroke-linejoin:round;stroke-miterlimit:4;stroke-opacity:1;stroke-dashoffset:0;marker:none;visibility:visible;display:block;overflow:visible" id="rect5790" d="m 10.125,3.09375 -3.5,3.5 0,12.78125 c 0,0.636573 0.5196771,1.125 1.15625,1.125 l 32.5625,0 C 40.980323,20.5 41.5,20.011573 41.5,19.375 l 0,-14.875 -1.4375,-1.34375 -4.9375,4.9375 -5,-5 -5,5 -5,-5 -5,5 -5,-5 z"/><path id="path5818" d="m 11.52717,5.9630783 0,13.7007227" style="fill:none;stroke:#000;stroke-width:.98855317;stroke-linecap:butt;stroke-linejoin:miter;stroke-miterlimit:4;stroke-opacity:.01754384;display:inline"/><path id="path5820" d="m 12.521447,7.2148525 0,12.1486455" style="fill:none;stroke:#fff;stroke-width:.99999994;stroke-linecap:butt;stroke-linejoin:miter;stroke-miterlimit:4;stroke-opacity:.20467828;display:inline"/><path style="color:#000;fill:#9b9b9b;fill-opacity:.54970757;fill-rule:nonzero;stroke:none;stroke-width:1;marker:none;visibility:visible;display:block;overflow:visible" id="rect5844" d="m 20.125,4.9375 -1,1 2,0 -1,-1 z m 10,0 -1,1 2,0 z m -12,2 -1,1 6,0 -1,-1 z m 10,0 -1,1 6,0 -1,-1 z"/><rect style="color:#000;fill:#9b9b9b;fill-opacity:.54970757;fill-rule:nonzero;stroke:none;stroke-width:1;marker:none;visibility:visible;display:block;overflow:visible" id="rect5846" width="20" height="1" x="16.021" y="8.947" rx=".138" ry=".065"/><rect style="color:#000;fill:#9b9b9b;fill-opacity:.54970757;fill-rule:nonzero;stroke:none;stroke-width:1;marker:none;visibility:visible;display:block;overflow:visible" id="rect5848" width="12.104" height="1" x="16.021" y="10.947" rx=".138" ry=".065"/><path style="color:#000;fill:none;stroke:url(#radialGradient5995);stroke-width:1;stroke-linecap:round;stroke-linejoin:round;stroke-miterlimit:4;stroke-opacity:1;stroke-dashoffset:0;marker:none;visibility:visible;display:block;overflow:visible" id="rect5792" d="m 10.125,4.4375 -2.5,2.5 0,12.46875 c 0,0.08257 0.073677,0.125 0.15625,0.125 l 32.46875,0 c 0.08257,0 0.15625,-0.04243 0.15625,-0.125 l 0,-14.59375 L 40.0625,4.5 35.125,9.4375 l -5,-5 -5,5 -5,-5 -5,5 -5,-5 z"/></g></svg>