<svg xmlns="http://www.w3.org/2000/svg" xmlns:xlink="http://www.w3.org/1999/xlink" width="48" height="48"><defs><radialGradient id="b" cx="24.31" cy="42.1" r="15.82" gradientTransform="matrix(1.076 0 0 .285-1.85 30.8)" gradientUnits="userSpaceOnUse"><stop offset="0"/><stop offset="1" stop-opacity="0"/></radialGradient><radialGradient id="f" cx="33.97" cy="35.74" r="86.7" gradientTransform="scale(.961 1.041)" gradientUnits="userSpaceOnUse"><stop offset="0" stop-color="#fafafa"/><stop offset="1" stop-color="#bbb"/></radialGradient><radialGradient id="g" cx="8.82" cy="3.76" r="37.75" gradientTransform="matrix(.968 0 0 1.033 3.35.65)" gradientUnits="userSpaceOnUse"><stop offset="0" stop-color="#a3a3a3"/><stop offset="1" stop-color="#4c4c4c"/></radialGradient><radialGradient id="e" cx="8.14" cy="7.27" r="38.2" gradientTransform="matrix(.968 0 0 1.033 3.35.65)" gradientUnits="userSpaceOnUse"><stop offset="0" stop-color="#fff"/><stop offset="1" stop-color="#f8f8f8"/></radialGradient><radialGradient id="c" cx="10.1" cy="18.82" r="1.21" gradientUnits="userSpaceOnUse"><stop offset="0" stop-color="#f0f0f0"/><stop offset="1" stop-color="#9a9a9a"/></radialGradient></defs><ellipse cx="24.3" cy="42.8" fill="url(#b)" opacity=".8" rx="17" ry="4.5"/><rect width="34.88" height="41" x="6.6" y="3.65" fill="url(#f)" stroke="url(#g)" rx="1.2"/><rect width="32.78" height="39" x="7.66" y="4.58" fill="none" stroke="url(#e)" rx=".2"/><g fill="none"><path stroke="#000" stroke-opacity=".02" d="m11.5 5.4v37.9"/><path stroke="#fff" stroke-opacity=".2" d="m12.5 5v38"/></g><g fill="#9b9b9b" fill-opacity=".55"><g id="a"><rect width="20" height="1" x="16" y="9" rx=".2"/><rect width="20" height="1" x="16" y="11" rx=".2"/><rect width="20" height="1" x="16" y="13" rx=".2"/><rect width="20" height="1" x="16" y="15" rx=".2"/></g><rect width="9" height="1" x="16" y="25" rx=".2"/><rect width="14" height="1" x="16" y="37" rx=".2"/><use y="8" xlink:href="#a"/><use y="20" xlink:href="#a"/></g><g id="d"><circle cx="10.17" cy="18.69" r=".82" fill="#fff"/><circle cx="9.82" cy="18.43" r=".82" fill="url(#c)"/></g><use y="11.5" xlink:href="#d"/></svg>